<svg xmlns="http://www.w3.org/2000/svg" width="18" height="18" viewBox="0 0 18 18" fill="none"><g clip-path="url(#clip0_122_175)"><path d="M7.8751 0.0526371C6.50752 0.221388 5.18213 0.713575 4.03955 1.47295C2.26768 2.65068 0.977441 4.37334 0.372754 6.37725C0.228613 6.84131 0.0879883 7.54795 0.0352539 8.02256C-0.0104492 8.46201 -0.0104492 9.53779 0.0352539 9.97725C0.414941 13.5421 2.93564 16.5866 6.37744 17.6272C6.8415 17.7714 7.54814 17.912 8.02275 17.9647C8.46221 18.0104 9.53799 18.0104 9.97744 17.9647C12.0587 17.7433 13.9888 16.7976 15.4724 15.2718C16.4884 14.2206 17.2091 13.0042 17.6274 11.6226C17.8876 10.7683 18.0001 9.97725 18.0001 8.9999C18.0001 8.26514 17.9649 7.86084 17.8384 7.22451C17.2021 3.99014 14.7903 1.33232 11.6228 0.372559C11.1587 0.228418 10.4521 0.0877934 9.97744 0.035059C9.51689 -0.0141602 8.32861 -0.00361252 7.8751 0.0526371ZM9.48174 3.74053C9.58018 3.8249 9.58018 3.82842 9.59072 4.32061L9.60478 4.81279L9.71377 4.83037C9.77705 4.84092 9.93877 4.8585 10.0724 4.86904C10.3853 4.89365 10.9126 5.0167 11.0813 5.10107C11.2325 5.17842 11.3521 5.33662 11.3802 5.49131C11.4013 5.63545 11.2782 6.13467 11.1868 6.2542C11.1517 6.30342 11.0673 6.38428 11.0005 6.42647C10.8599 6.5249 10.7263 6.51787 10.3079 6.40186C9.46768 6.16982 8.60635 6.23311 8.30752 6.546C8.15635 6.70772 8.12119 6.79209 8.12119 6.996C8.12119 7.43193 8.36728 7.61475 9.68213 8.15264C10.1251 8.33545 10.5646 8.54287 10.7438 8.65186C11.5067 9.12646 11.8478 9.71709 11.8478 10.5644C11.8478 11.2851 11.5771 11.8722 11.0321 12.3327C10.7438 12.5753 10.2587 12.8144 9.85439 12.9128L9.52744 12.9901V13.5632C9.52744 14.1257 9.52393 14.1362 9.43955 14.2206C9.35869 14.305 9.33408 14.3085 8.91924 14.3085C8.529 14.3085 8.47275 14.3015 8.38838 14.2347L8.29697 14.1644V13.6265V13.0886L7.93135 13.0499C7.13682 12.962 6.52158 12.7862 6.32119 12.5894C6.14541 12.4101 6.12432 12.2729 6.22275 11.9108C6.32119 11.5487 6.37041 11.4503 6.504 11.3554C6.67627 11.2323 6.80986 11.2323 7.17549 11.3483C8.71182 11.8405 9.88252 11.5769 9.879 10.7437C9.87549 10.5362 9.77353 10.3394 9.57314 10.1601C9.35869 9.9667 9.07744 9.82607 8.45869 9.59756C7.82588 9.36553 7.50244 9.21436 7.15439 8.98232C6.45478 8.51826 6.13838 7.95928 6.14541 7.20693C6.15244 6.09951 6.89424 5.28389 8.18447 4.95693L8.33213 4.91826V4.44365C8.33213 3.92334 8.37432 3.75107 8.51494 3.69131C8.56064 3.67373 8.77158 3.65967 8.98955 3.65967C9.35518 3.65615 9.39033 3.66318 9.48174 3.74053Z" fill="white"></path></g><defs><clipPath id="clip0_122_175"><rect width="18" height="18" fill="white"></rect></clipPath></defs></svg>