<svg xmlns="http://www.w3.org/2000/svg" width="12" height="7" viewBox="0 0 12 7" fill="none"><path d="M10.855 1.07501C11.203 1.25431 11.3577 1.6586 11.2206 2.02423C11.1679 2.16485 10.8409 2.50938 8.85105 4.50274C7.54676 5.81055 6.47449 6.85821 6.3866 6.91095C6.18973 7.03048 5.8452 7.04102 5.64832 6.93907C5.58152 6.90391 4.48465 5.83868 3.21551 4.56602C1.51746 2.87149 0.888165 2.2211 0.845978 2.11915C0.814337 2.04181 0.786212 1.89063 0.789727 1.78165C0.789727 1.35977 1.09559 1.04688 1.51395 1.03634C1.89012 1.02931 1.81277 0.966024 3.98895 3.13516L5.99988 5.14259L8.01434 3.13165C9.54715 1.59532 10.0639 1.10313 10.1835 1.0504C10.4085 0.948446 10.6264 0.955477 10.855 1.07501Z" fill="white"></path></svg>