<svg xmlns="http://www.w3.org/2000/svg" width="21" height="21" viewBox="0 0 21 21" fill="none"><g clip-path="url(#clip0_122_105)"><path d="M6.22645 0.0446091C4.49027 0.137909 3.16786 0.608461 2.20647 1.46438C0.920563 2.61237 0.356711 3.9429 0.235016 6.12529C0.125491 8.1008 0.153886 14.2261 0.279637 15.3335C0.45001 16.8831 0.977354 18.0919 1.86978 18.9925C2.59184 19.7186 3.28955 20.1283 4.31179 20.4244C5.40704 20.7408 6.21834 20.7814 11.1673 20.757C15.1426 20.7408 15.4631 20.7287 16.2784 20.5623C18.6718 20.0796 20.2944 18.4448 20.7568 16.0556C20.9191 15.2199 20.9272 14.7778 20.915 9.99924L20.8988 5.4154L20.8055 4.90834C20.5621 3.58187 20.0834 2.60426 19.2884 1.79296C18.1647 0.64497 16.9112 0.162249 14.7573 0.0405521C13.8851 -0.00812531 7.12699 -0.00406837 6.22645 0.0446091ZM15.1223 1.98767C16.3312 2.10531 17.1668 2.42577 17.7875 3.01396C18.2499 3.44801 18.546 3.93073 18.7488 4.57977C18.903 5.06654 18.9719 5.51681 19.0166 6.34839C19.0693 7.29356 19.0693 13.5162 19.0166 14.4451C18.9233 16.1286 18.615 16.9602 17.8077 17.735C17.1668 18.3434 16.4285 18.6558 15.3049 18.7815C14.2989 18.8951 6.79842 18.8951 5.85326 18.7815C5.0663 18.6882 4.41726 18.4935 3.94265 18.2096C3.67086 18.0514 3.13541 17.5565 2.93664 17.2847C2.61618 16.8506 2.36467 16.1935 2.24704 15.4958C2.13751 14.8386 2.101 13.5243 2.101 10.3643C2.101 7.25705 2.13751 5.97925 2.24298 5.33427C2.42146 4.22279 2.83928 3.43989 3.54917 2.86793C3.92237 2.56775 4.19415 2.42171 4.69716 2.2554C5.22856 2.08097 5.82486 1.99173 6.77408 1.9471C7.85311 1.89843 14.5504 1.93088 15.1223 1.98767Z" fill="white"></path><path d="M15.7633 3.62244C15.1548 3.79687 14.7856 4.40129 14.8871 5.05438C14.9317 5.33834 15.029 5.53305 15.2319 5.73182C15.4793 5.98332 15.6578 6.05634 16.0675 6.07662C16.4042 6.09285 16.4366 6.08879 16.6841 5.9671C16.964 5.82917 17.1384 5.65069 17.2844 5.35457C17.4061 5.09901 17.4102 4.60006 17.2885 4.33639C17.0208 3.76036 16.3677 3.45613 15.7633 3.62244Z" fill="white"></path><path d="M9.87315 5.07465C9.05779 5.18418 8.25055 5.49653 7.53661 5.97519C7.1553 6.23075 6.40079 6.98526 6.14523 7.37062C5.74364 7.9791 5.4394 8.71738 5.30148 9.43132C5.2163 9.85725 5.22847 11.0052 5.32177 11.4312C5.78826 13.5973 7.36218 15.1753 9.5324 15.6459C10.003 15.7473 11.155 15.7473 11.6256 15.6459C12.7208 15.4065 13.5483 14.9603 14.3353 14.1774C15.1344 13.3864 15.6009 12.5224 15.8402 11.3987C15.9417 10.9201 15.9417 9.84914 15.8402 9.37047C15.3778 7.19214 13.7714 5.57766 11.6134 5.13144C11.228 5.05031 10.2666 5.01786 9.87315 5.07465ZM11.4146 7.05828C12.6356 7.37062 13.5767 8.31173 13.9094 9.55302C13.9783 9.80452 13.9986 9.99517 13.9986 10.3846C13.9986 10.9687 13.9134 11.346 13.6822 11.8328C12.9439 13.3905 11.1591 14.1855 9.56485 13.6663C8.39658 13.289 7.54878 12.3763 7.22426 11.1553C7.1269 10.7902 7.13096 9.983 7.22832 9.59358C7.64208 7.98315 9.11053 6.87979 10.725 6.96092C10.9319 6.96903 11.2402 7.01365 11.4146 7.05828Z" fill="white"></path></g><defs><clipPath id="clip0_122_105"><rect width="20.7692" height="20.7692" fill="white" transform="translate(0.153809)"></rect></clipPath></defs></svg>