<svg xmlns="http://www.w3.org/2000/svg" width="22" height="22" viewBox="0 0 22 22" fill="none"><g clip-path="url(#clip0_122_90)"><path d="M1.57383 4.47031C1.31953 4.56465 1.08574 4.76973 0.975 4.99531L0.864258 5.21269V11.4266C0.864258 17.4025 0.868359 17.6527 0.942187 17.8127C1.03652 18.0219 1.2498 18.2393 1.46309 18.3459C1.61895 18.4238 1.81172 18.4238 11.3643 18.4238C20.9168 18.4238 21.1096 18.4238 21.2654 18.3459C21.4787 18.2393 21.692 18.0219 21.7863 17.8127C21.8602 17.6527 21.8643 17.4025 21.8643 11.4307C21.8643 5.45879 21.8602 5.20859 21.7863 5.04863C21.692 4.83945 21.4787 4.62207 21.2654 4.51543C21.1096 4.4375 20.9086 4.4375 11.4053 4.4293C4.05117 4.42519 1.67227 4.4334 1.57383 4.47031ZM20.2646 5.29473C20.0965 5.45059 11.9385 11.5373 11.8154 11.5988C11.7375 11.6357 11.5898 11.6809 11.4873 11.6932C11.0648 11.7547 11.2166 11.8572 6.68848 8.46113C4.3752 6.72617 2.46797 5.29062 2.44746 5.27422C2.42285 5.25371 6.35215 5.2373 11.3643 5.2373C18.9727 5.2373 20.3139 5.24551 20.2646 5.29473ZM6.00352 9.01894C8.63672 11 10.384 12.2838 10.5604 12.374C10.8434 12.5135 10.8557 12.5176 11.3602 12.5176C11.8523 12.5176 11.8893 12.5135 12.1436 12.3904C12.3199 12.3084 13.9072 11.1436 16.7168 9.03535L21.0234 5.80742L21.0357 8.59648C21.0398 10.1346 21.0398 12.6447 21.0357 14.1746L21.0234 16.9596L18.7553 14.1582C17.1475 12.173 16.4502 11.3404 16.3641 11.3076C16.2697 11.2666 16.2041 11.2666 16.0811 11.3035C15.8021 11.3855 15.7078 11.7055 15.8883 11.968C15.9416 12.0459 16.9834 13.342 18.2098 14.8555L20.4328 17.6035L15.9006 17.6158C13.4068 17.6199 9.32168 17.6199 6.82793 17.6158L2.2957 17.6035L4.51875 14.8555C5.74512 13.342 6.78691 12.0459 6.84023 11.968C7.0207 11.7055 6.92637 11.3855 6.64746 11.3035C6.52441 11.2666 6.45879 11.2666 6.36445 11.3076C6.27832 11.3404 5.58926 12.1607 4.01426 14.109C2.78789 15.6225 1.7666 16.8857 1.73789 16.9227C1.69687 16.976 1.68867 15.8029 1.68457 11.3979C1.68457 8.32578 1.69277 5.81152 1.70508 5.81152C1.71738 5.81152 3.64922 7.25527 6.00352 9.01894Z" fill="white"></path></g><defs><clipPath id="clip0_122_90"><rect width="21" height="21" fill="white" transform="translate(0.864258 0.930664)"></rect></clipPath></defs></svg>