<svg xmlns="http://www.w3.org/2000/svg" width="25" height="26" viewBox="0 0 25 26" fill="none"><path d="M7.49512 1.37109C5.7959 1.45234 4.81934 1.7418 3.85254 2.44765C2.62695 3.34648 1.77734 4.65156 1.49414 6.09375C1.31836 7.00781 1.29883 7.55117 1.29395 11.8828V16.123L1.40625 16.575C1.52344 17.0676 1.85059 17.8242 2.10449 18.2102C2.53906 18.8703 3.30566 19.5406 4.01855 19.8809C4.64844 20.1855 5.01953 20.2668 5.9082 20.3074C6.35254 20.3277 6.74805 20.3633 6.79199 20.3836C6.96289 20.4598 7.00195 20.6426 6.91895 20.932C6.80664 21.3383 6.78223 21.582 6.83594 21.9121C6.93848 22.557 7.34375 23.1105 7.94434 23.4203C8.25195 23.5777 8.30566 23.5879 8.76465 23.5879C9.18945 23.5879 9.28711 23.5727 9.52148 23.4559C9.66797 23.3848 10.459 22.8262 11.2793 22.2168C12.8809 21.0285 13.0762 20.9016 13.5986 20.673C14.2529 20.3887 14.5459 20.3531 16.6504 20.3125C18.8232 20.2668 19.0771 20.2363 19.9072 19.9012C21.5625 19.2258 22.8174 17.8598 23.3984 16.0977C23.667 15.275 23.6914 14.9551 23.7158 11.9844C23.75 8.15039 23.6719 6.65742 23.3887 5.58594C23.0029 4.15898 21.7871 2.69648 20.3955 1.99062C19.6289 1.59961 18.8623 1.44219 17.3682 1.37109C16.2354 1.31523 8.66699 1.31523 7.49512 1.37109ZM18.1641 3.09258C18.8818 3.18906 19.2773 3.30078 19.7168 3.52929C20.752 4.06758 21.6064 5.13398 21.8701 6.2207C22.0459 6.94687 22.0801 7.5207 22.1045 10.5371C22.1387 14.4727 22.0947 15.1023 21.7041 15.9809C21.2793 16.9355 20.5664 17.6973 19.6436 18.1797C18.8965 18.5656 18.75 18.5859 16.333 18.6621C14.2871 18.723 14.1602 18.7332 13.7207 18.8551C13.1445 19.0176 12.627 19.2359 12.1875 19.5102C12.002 19.6219 11.1768 20.216 10.3564 20.8254C9.53613 21.4398 8.81836 21.9375 8.75977 21.9375C8.70605 21.9375 8.6084 21.8816 8.54492 21.8105C8.43262 21.6836 8.42773 21.6684 8.49121 21.3891C8.64258 20.6984 8.6084 20.2363 8.36426 19.7336C8.20312 19.4086 7.83203 19.0328 7.49023 18.8602C7.23633 18.7332 7.14844 18.718 6.39648 18.6824C5.94727 18.657 5.47852 18.6164 5.35156 18.5859C4.44824 18.3777 3.62305 17.6973 3.22266 16.834C2.86621 16.0672 2.86621 16.0977 2.89551 11.5629C2.9248 6.75898 2.9541 6.40859 3.39355 5.49453C3.90625 4.42812 4.94629 3.52422 5.97168 3.25508C6.33301 3.15859 7.13867 3.05703 7.8125 3.02656C8.79395 2.98594 17.7783 3.03672 18.1641 3.09258Z" fill="white"></path><path d="M7.88569 9.82109C7.22651 10.1258 7.07026 11.1211 7.59761 11.6391C8.05659 12.0859 8.85249 12.0047 9.20894 11.4664C9.32612 11.2937 9.35054 11.1922 9.36519 10.8926C9.3896 10.3797 9.22358 10.0598 8.82808 9.84648C8.61323 9.72969 8.1103 9.71953 7.88569 9.82109Z" fill="white"></path><path d="M12.0362 9.83633C11.2989 10.2375 11.2306 11.2582 11.9044 11.7559C12.0997 11.893 12.1534 11.9082 12.5001 11.9082C12.8468 11.9082 12.9005 11.893 13.0958 11.7559C13.755 11.2684 13.6964 10.2273 12.9835 9.85156C12.7491 9.72461 12.2511 9.71953 12.0362 9.83633Z" fill="white"></path><path d="M16.1865 9.83124C15.7714 10.0648 15.6103 10.3797 15.6347 10.8926C15.6542 11.3547 15.8105 11.6137 16.1767 11.8066C16.9091 12.1824 17.7197 11.6746 17.7246 10.8367C17.7246 10.4914 17.539 10.1105 17.2753 9.92265C17.1044 9.7957 17.0214 9.77538 16.7041 9.76015C16.4355 9.74999 16.2939 9.77031 16.1865 9.83124Z" fill="white"></path></svg>