<svg xmlns="http://www.w3.org/2000/svg" width="18" height="18" viewBox="0 0 18 18" fill="none"><g clip-path="url(#clip0_122_85)"><path d="M9.99173 1.00707C9.92201 1.05356 9.8556 1.14321 9.81576 1.23617C9.75931 1.37563 9.75599 1.40883 9.79251 1.535C9.86888 1.78403 9.99173 1.87035 10.4101 1.95668C12.5384 2.39828 14.3181 3.58032 15.5765 5.39653C16.1841 6.26977 16.5925 7.2559 16.8515 8.47446C16.9113 8.75668 16.991 8.88617 17.1536 8.95258C17.3993 9.05551 17.665 8.97582 17.7978 8.76C17.8808 8.62387 17.8808 8.52426 17.7978 8.11586C17.3097 5.73188 15.8886 3.65004 13.8134 2.28539C12.9202 1.69438 11.881 1.2561 10.8019 1.01371C10.3304 0.907464 10.1411 0.907464 9.99173 1.00707Z" fill="white"></path><path d="M3.71969 1.95666C3.23825 2.08947 3.03239 2.24885 2.0861 3.23166C1.31579 4.03185 1.16969 4.23439 1.01696 4.68928C0.970474 4.82541 0.917349 5.04787 0.894106 5.184C0.847622 5.48283 0.874185 6.2465 0.943911 6.62502C1.2029 8.03283 2.03961 9.83908 3.15524 11.4029C4.59958 13.4283 6.3693 15.0785 8.38141 16.2838C10.7953 17.7281 12.9103 18.2594 14.2052 17.7414C14.6103 17.5787 14.856 17.3795 15.6761 16.5494C16.6988 15.5102 16.8183 15.3143 16.8183 14.6602C16.815 14.2783 16.7519 14.0559 16.5494 13.7471C16.483 13.6475 15.8986 13.0332 15.2445 12.3824C14.1986 11.3399 14.0359 11.1904 13.83 11.0842C13.4515 10.8916 13.083 10.8451 12.7011 10.9414C12.3093 11.0444 12.1466 11.1639 11.4129 11.8877L10.7189 12.5684L10.4168 12.4057C8.92262 11.6055 6.98356 9.6465 6.28961 8.22541L6.20329 8.04943L6.83082 7.42189C7.17614 7.07326 7.52145 6.69807 7.5945 6.58518C7.78708 6.29631 7.87672 6.00744 7.87672 5.68537C7.87672 5.36662 7.83356 5.20061 7.6775 4.89846C7.57457 4.6926 7.41852 4.52658 6.34606 3.4508C5.0279 2.13264 4.92829 2.04963 4.48336 1.9467C4.20446 1.88029 3.98864 1.88361 3.71969 1.95666ZM4.41696 2.9926C4.48004 3.02248 5.0445 3.56369 5.66872 4.19123C6.71129 5.23713 6.80426 5.34338 6.85075 5.49611C6.95368 5.85139 6.84743 6.00744 5.92106 6.90061C5.18395 7.61115 5.13083 7.69084 5.15739 8.01955C5.17067 8.19221 5.21051 8.30842 5.37653 8.64709C5.81813 9.54025 6.46891 10.3936 7.48493 11.4063C8.35153 12.2729 9.21481 12.9203 10.1013 13.3785C10.5197 13.5944 10.5728 13.6143 10.7588 13.6143C10.8982 13.6143 11.0045 13.591 11.1007 13.5446C11.1804 13.5014 11.5589 13.1594 12.0039 12.7211C12.6281 12.1035 12.7941 11.9608 12.9037 11.9276C13.2589 11.8246 13.3121 11.8645 14.6004 13.1594C15.7459 14.3082 15.8388 14.4211 15.8388 14.6768C15.8388 14.9092 15.7293 15.0586 15.0187 15.7824C14.2617 16.5528 14.172 16.6391 13.9396 16.7553C13.332 17.0641 12.3226 16.9744 11.0742 16.4996C9.00231 15.7094 6.77438 14.1322 5.19723 12.3426C4.14801 11.1473 3.39098 10.0383 2.79 8.81643C1.86032 6.92385 1.63122 5.51271 2.1193 4.69924C2.21891 4.53322 3.66657 3.06896 3.8027 2.99924C4.0152 2.88303 4.20114 2.88303 4.41696 2.9926Z" fill="white"></path><path d="M9.9952 4.01856C9.84911 4.05508 9.67313 4.24434 9.64325 4.4004C9.5868 4.70919 9.77938 4.94825 10.1479 5.01465C11.7384 5.30684 13.1395 6.5586 13.6409 8.13575C13.694 8.3084 13.7505 8.51758 13.7638 8.59727C13.8235 8.95254 13.9962 9.13848 14.2684 9.1418C14.5839 9.14512 14.7765 8.95587 14.7765 8.64376C14.7765 8.42462 14.6171 7.81036 14.461 7.42188C13.8003 5.78829 12.3493 4.51661 10.6692 4.10489C10.2442 4.00196 10.1347 3.98536 9.9952 4.01856Z" fill="white"></path></g><defs><clipPath id="clip0_122_85"><rect width="17" height="17" fill="white" transform="translate(0.864258 0.930664)"></rect></clipPath></defs></svg>