<svg xmlns="http://www.w3.org/2000/svg" width="18" height="18" viewBox="0 0 18 18" fill="none"><path d="M8.71886 1.44847L8.56065 1.52933L7.45323 3.75824C6.84503 4.98168 6.32823 6.00472 6.30714 6.02582C6.28956 6.04691 5.18917 6.21918 3.86378 6.40902C1.17784 6.79574 1.20245 6.79222 1.06534 7.06644C0.966904 7.25629 0.963388 7.38988 1.05128 7.57621C1.09698 7.67464 1.64893 8.23011 2.87589 9.42191C3.98683 10.5012 4.6337 11.1516 4.63722 11.1973C4.64073 11.236 4.45792 12.3258 4.23644 13.6196C4.01495 14.9133 3.83214 16.0278 3.83214 16.0911C3.83214 16.2598 3.95167 16.4672 4.09581 16.5586C4.20128 16.6254 4.25753 16.6325 4.44034 16.6219C4.64776 16.6043 4.78136 16.5411 6.83097 15.4582L9.00011 14.3157L11.1728 15.4547C12.3646 16.084 13.4017 16.6114 13.4755 16.6254C13.8271 16.7063 14.1681 16.4461 14.1681 16.0981C14.1681 16.0278 13.9853 14.9098 13.7638 13.6161C13.5423 12.3188 13.3595 11.2325 13.3595 11.2043C13.3595 11.1727 14.1575 10.3676 15.1349 9.4184C16.9454 7.65004 17.0157 7.57269 17.0157 7.31957C17.0157 7.26683 16.9806 7.15082 16.9384 7.06644C16.7978 6.78871 16.8259 6.79574 14.1153 6.4055C12.7829 6.21214 11.686 6.0434 11.679 6.02582C11.672 6.00824 11.1657 4.98871 10.554 3.76175L9.43956 1.52933L9.28136 1.44847C9.19698 1.40629 9.07042 1.37113 9.00011 1.37113C8.92979 1.37113 8.80323 1.40629 8.71886 1.44847Z" fill="white"></path></svg>