<svg xmlns="http://www.w3.org/2000/svg" width="21" height="21" viewBox="0 0 21 21" fill="none"><g clip-path="url(#clip0_122_110)"><path d="M0.457707 0.0486755C0.473933 0.0730133 2.25473 2.66917 4.41684 5.81295C6.57489 8.95673 8.34352 11.5367 8.34352 11.5448C8.34352 11.5529 1.0459 20.0512 0.482046 20.6962C0.425255 20.7652 0.469877 20.7692 1.35014 20.7692H2.28313L5.73114 16.7574L9.18322 12.7495L11.9376 16.7574L14.6919 20.7692H17.7465C20.1804 20.7692 20.797 20.7571 20.7686 20.7165C20.7523 20.6922 18.9188 18.0149 16.6918 14.7737C14.4607 11.5326 12.6312 8.85937 12.6191 8.83098C12.6028 8.7823 13.5886 7.6262 18.7971 1.56986L20.152 -3.8147e-06H19.219H18.286L15.0286 3.78876C13.2357 5.86974 11.7591 7.56941 11.7469 7.56129C11.7348 7.55724 10.5584 5.84946 9.13048 3.77659L6.53839 -3.8147e-06H3.48385C1.12703 -3.8147e-06 0.437425 0.012167 0.457707 0.0486755ZM11.8118 10.2102C15.203 15.0658 18.0466 19.1345 18.1318 19.2562L18.286 19.4711H16.9352L15.5844 19.4671L9.41849 10.6442C6.02727 5.78861 3.18367 1.71995 3.09848 1.59826L2.94028 1.3792H4.29515L5.64596 1.38326L11.8118 10.2102Z" fill="white"></path></g><defs><clipPath id="clip0_122_110"><rect width="20.7692" height="20.7692" fill="white" transform="translate(0.230469)"></rect></clipPath></defs></svg>