<svg xmlns="http://www.w3.org/2000/svg" width="26" height="26" viewBox="0 0 26 26" fill="none"><path d="M8.63292 3.2043C6.58644 3.27032 4.27081 3.40235 3.78331 3.47852C2.93526 3.61563 2.27511 3.91524 1.68097 4.44336C1.21886 4.84961 0.959873 5.21016 0.705966 5.77891C0.401279 6.47969 0.218466 7.27696 0.116904 8.4043C-0.0100493 9.80586 -0.0151274 16.2195 0.116904 17.6262C0.340341 20.0992 0.985263 21.3383 2.42745 22.0645C3.29073 22.5012 4.27081 22.623 7.99816 22.75C12.1013 22.8922 16.311 22.8668 20.0841 22.6738C22.2728 22.5621 22.7298 22.491 23.4357 22.1609C24.4411 21.6938 25.086 20.9219 25.4872 19.7234C25.9087 18.4641 25.9747 17.5195 25.9747 12.9238C25.9696 10.0293 25.9544 9.19649 25.8884 8.42461C25.665 5.95156 25.0708 4.75821 23.6642 3.95078C23.3138 3.75274 22.7755 3.575 22.2423 3.48867C20.6782 3.22969 12.8681 3.06719 8.63292 3.2043ZM17.0931 4.77344C19.1446 4.83946 21.5212 4.96641 21.9325 5.03242C22.5775 5.13399 23.1665 5.42852 23.5169 5.82969C24.2228 6.63203 24.4411 8.32813 24.4411 13.0254C24.4411 16.0977 24.3396 17.9258 24.1212 18.7484C23.8622 19.7488 23.6032 20.1805 23.065 20.5461C22.5064 20.932 22.2068 20.9828 19.9825 21.0996C15.6915 21.318 11.5579 21.3281 6.67784 21.125C3.91026 21.0082 3.18409 20.8508 2.56964 20.2363C2.14308 19.8148 1.83331 18.9465 1.72667 17.9105C1.49815 15.5441 1.49815 10.3441 1.73175 8.11992C1.79269 7.51563 1.98058 6.80977 2.19894 6.33242C2.50362 5.68242 3.12315 5.22032 3.91026 5.06289C4.30128 4.98164 6.52042 4.84961 8.65831 4.77852C10.4915 4.71758 15.3157 4.71758 17.0931 4.77344Z" fill="white"></path><path d="M10.4508 8.58204C10.0395 8.70392 9.78048 9.00861 9.69923 9.46056C9.66368 9.64337 9.64845 10.8672 9.65861 12.934L9.67384 16.1231L9.80079 16.3516C9.99376 16.6918 10.2883 16.8746 10.6844 16.9C10.9789 16.9203 11.0449 16.9051 11.3649 16.7426C12.091 16.3719 17.0422 13.6957 17.1742 13.6043C17.3672 13.4621 17.5703 13.0305 17.5703 12.7512C17.5703 12.4719 17.4332 12.1621 17.2352 11.9742C17.0777 11.832 11.3598 8.68868 11.0754 8.5922C10.8824 8.52618 10.6539 8.52111 10.4508 8.58204ZM13.0305 11.4309C14.0055 11.9641 14.95 12.477 15.1227 12.5785L15.4477 12.7563L13.65 13.7211C12.6649 14.2492 11.7152 14.7621 11.5426 14.8535L11.2227 15.0313V12.7461C11.2227 11.4867 11.2328 10.4609 11.243 10.4609C11.2531 10.4609 12.0555 10.8977 13.0305 11.4309Z" fill="white"></path></svg>